<svg width="20" height="21" fill="none" xmlns="http://www.w3.org/2000/svg"><g clip-path="url(#clip0)" fill="#000"><path d="M13.635 6.103c-.229-.033-.472-.052-.608-.068-.247-.03-1.305.002-2.314.248-.074.018-.15.029-.226.03l-.937.015c-.48.008-3.476-1.092-5.869 1.026-.929.815-1.479 1.839-1.687 3.052-.133.831-.06 2.392.36 3.792a10.297 10.297 0 0 0 2.029 3.811c.303.36.625.74 1.005 1.043 2.169 1.719 4.077.338 4.758.474.987.237 2.858.98 4.57-.55 2.156-1.963 3.296-4.744 3.356-7.584.04-2.717-1.853-4.883-4.437-5.29zm-4.468-2.55a2.836 2.836 0 0 0 4.148-2.12 2.836 2.836 0 0 0-4.148 2.12z"/><path d="M13.734 5.476c-.797-.127-2.379.003-3.128.181a4.581 4.581 0 0 0-.276-1.14 3.469 3.469 0 0 0 3.613-3 .634.634 0 0 0-.33-.644 3.47 3.47 0 0 0-4.816 1.674c-.515-.395-1.157-.76-1.988-1.132a.634.634 0 1 0-.519 1.157c1.97.884 2.837 1.747 3.038 3.085-.53-.116-1.05-.192-1.55-.225-3.487-.218-5.918 2.011-6.409 4.867-.195 1.089-.215 4.826 2.529 8.119.95 1.127 1.926 2.045 3.403 2.045.91 0 1.713-.317 2.7-.317 1.796 0 3.676.8 5.168-.727 2.204-2.256 3.47-4.802 3.537-8.018.045-3.057-2.108-5.475-4.972-5.925zM12.57 1.813a2.2 2.2 0 0 1-2.66 1.36 2.2 2.2 0 0 1 2.66-1.36zm1.691 16.72c-.646.661-1.409.61-2.703.46-1.457-.167-1.921-.161-3.188.068-1.366.247-1.988.34-3.501-1.458a9.706 9.706 0 0 1-1.906-3.578c-.404-1.38-.457-2.806-.345-3.515.19-1.095.674-1.971 1.483-2.681.962-.853 2.139-1.223 3.595-1.132 1.459.097 1.83.495 3.062.228.7-.18 2.225-.328 2.782-.195 1.15.273 2.136.739 2.882 1.65.7.866 1.032 1.849 1.015 2.999-.06 2.826-1.153 5.083-3.176 7.154z"/></g><defs><clipPath id="clip0"><path fill="#fff" transform="translate(0 .463)" d="M0 0h20v20H0z"/></clipPath></defs></svg>