<svg width="37" height="37" fill="none" xmlns="http://www.w3.org/2000/svg"><path d="M18.826.265C8.88.265.8 8.333.8 18.265s8.08 18 18.025 18c9.966 0 18.024-8.068 18.024-18s-8.058-18-18.024-18zm4.898 14.95c-.106.975-.19 1.927-.297 2.902-.02.17-.106.19-.233.19h-2.778v10.588h-4.41V18.307h-1.4c-.233 0-.509.064-.658-.063-.106-.106-.042-.403-.042-.636v-3.07h2.1v-.805c.02-.847 0-1.715.105-2.562.234-1.927 1.676-3.304 3.584-3.43 1.124-.107 2.248-.064 3.372-.064h.657v3.642h-2.29c-.594 0-.954.296-.975.868-.043.763 0 1.546 0 2.33h3.35a8.924 8.924 0 0 0-.085.699z" fill="#fff"/></svg>