<svg width="37" height="37" fill="none" xmlns="http://www.w3.org/2000/svg"><path d="M18.252.265c-9.931 0-18 8.068-18 18s8.069 18 18 18c9.953 0 18-8.068 18-18s-8.047-18-18-18zm.022 7.073c3.113 0 5.654 2.541 5.633 5.654 0 3.092-2.563 5.654-5.655 5.654-3.112 0-5.654-2.562-5.632-5.654a5.653 5.653 0 0 1 5.654-5.654zm2.562 16.179c.932.931 1.864 1.842 2.795 2.795.763.784.741 1.885-.063 2.541a1.652 1.652 0 0 1-2.012.042 2.73 2.73 0 0 1-.36-.338l-2.922-2.923c-1.017 1.017-2.012 1.99-2.986 2.986-.36.36-.763.593-1.292.593-.678-.021-1.186-.339-1.482-.953-.276-.593-.255-1.207.19-1.715.487-.55 1.038-1.08 1.567-1.61l1.694-1.694c-.466-.148-.931-.275-1.355-.444a18.964 18.964 0 0 1-1.863-.91c-.805-.467-1.038-1.44-.593-2.246.444-.783 1.418-1.08 2.223-.614.826.445 1.652.847 2.584.995 1.736.297 3.367.022 4.891-.846.488-.297.996-.466 1.567-.276.657.212 1.038.678 1.144 1.334.106.636-.127 1.207-.656 1.567-.89.615-1.885 1.038-2.923 1.313-.127.043-.254.064-.381.106a.461.461 0 0 1-.064.106c.106.064.212.106.297.19z" fill="#fff"/><path d="M18.295 15.3a2.328 2.328 0 0 0 2.287-2.33c-.021-1.291-1.08-2.35-2.35-2.308a2.332 2.332 0 0 0-2.309 2.33 2.328 2.328 0 0 0 2.372 2.308z" fill="#fff"/></svg>