<svg viewBox="0 0 48 15" fill="none" xmlns="http://www.w3.org/2000/svg"><path d="M46.843 3.514c-.17-.13-4.51-3.333-10.078-2.815-4.646.453-6.695 2.912-7.344 3.882-5.296-.744-9.224-1.552-12.777-2.297-.82-.161-1.64-.355-2.425-.485C9.573.861 3.902.505 2.296 1.087.725 1.637.178 2.834.144 2.9c-.136.324 0 .712.342.841.341.13.751 0 .888-.323 0 0 .342-.744 1.366-1.1 1.06-.388 6.218-.227 11.137.776.41.097.854.162 1.264.26-.615 1.1-1.469 3.137-.888 5.531.854 3.462 5.466 5.468 5.67 5.565.103.033.206.065.274.065.24 0 .478-.13.615-.356.068-.13 1.913-3.43.717-7.053a7.327 7.327 0 0 0-1.776-2.847c2.767.55 5.876 1.132 9.668 1.65.751.841 3.382 3.3 7.583 3.3h.581c5.227-.291 9.121-4.562 9.292-4.756.137-.13.17-.323.17-.485.035-.194-.067-.356-.204-.453zm-9.907-1.52c3.587-.357 6.696 1.1 8.165 1.94-1.298.583-5.193 1.942-11.889 1.133a197.65 197.65 0 0 1-2.254-.291c.786-.906 2.562-2.46 5.978-2.783zM19.958 12.927c-1.196-.614-3.724-2.2-4.27-4.4-.479-1.973.239-3.72.751-4.626.376.615.854 1.424 1.23 2.297.444 1.132.888 3.494.922 3.527.034.161.171.258.342.258h.068a.337.337 0 0 0 .274-.388c-.035-.097-.444-2.459-.957-3.656a11.79 11.79 0 0 0-.99-1.94c1.024.55 2.425 1.617 3.006 3.429.717 2.297.034 4.497-.376 5.5zM37.585 7.88c-2.562.162-4.51-.808-5.739-1.682.376.065.786.097 1.196.162 1.537.194 2.938.259 4.167.259 2.392 0 4.305-.291 5.74-.615-1.435.906-3.314 1.78-5.364 1.876z" fill="#000"/></svg>