<svg width="37" height="37" fill="none" xmlns="http://www.w3.org/2000/svg"><path d="M18.551.265c-9.931 0-18 8.068-18 18s8.069 18 18 18c9.953 0 18-8.068 18-18s-8.047-18-18-18zm10.313 13.299c-.085.466-.296.91-.572 1.291-.593.869-1.207 1.716-1.82 2.563-.276.381-.551.741-.805 1.143-.255.403-.212.784.127 1.123.487.508.995.974 1.482 1.482.487.487.974 1.017 1.313 1.63.106.191.19.403.233.615.063.339-.064.55-.402.656-.191.064-.403.064-.593.085-.826.021-1.631 0-2.457.042-.826.064-1.461-.254-2.012-.804-.444-.445-.826-.911-1.27-1.356a2.682 2.682 0 0 0-.53-.444c-.296-.212-.53-.17-.783.084-.254.254-.36.572-.403.91-.042.297-.063.615-.084.933-.043.36-.212.571-.572.635-.042 0-.085.021-.127.021-.572 0-1.122.021-1.694 0a5.595 5.595 0 0 1-2.457-.72c-.931-.53-1.82-1.122-2.498-1.948a36.945 36.945 0 0 1-1.737-2.33c-1.08-1.609-1.97-3.345-2.753-5.124-.063-.149-.127-.276-.17-.424-.084-.296.043-.508.34-.572.127-.02.275-.042.402-.042.89 0 1.8-.021 2.69-.021.465 0 .762.19.931.614.466 1.144 1.059 2.224 1.652 3.304.233.423.53.825.91 1.143.17.127.34.212.551.19.127-.02.19-.063.254-.19.148-.275.212-.55.254-.847a9.53 9.53 0 0 0 .043-2.33c-.022-.232-.085-.486-.127-.72-.106-.465-.424-.698-.869-.804-.084-.021-.17-.064-.254-.106a.885.885 0 0 1 .17-.254c.232-.233.508-.36.825-.402 1.06-.17 2.097-.149 3.156-.043l.38.064c.51.127.615.317.7.826.042.36.02.72.02 1.1v.89h-.02c0 .678-.021 1.355 0 2.054 0 .17.084.36.17.509.169.275.423.296.677.084.381-.317.677-.699.953-1.1a16.74 16.74 0 0 0 1.779-3.326c.02-.02.02-.063.042-.084.148-.36.296-.508.762-.508 1.101 0 2.203-.022 3.304-.022.17 0 .339.021.487.085.36-.042.445.148.402.445z" fill="#fff"/></svg>