<svg width="20" height="21" viewBox="0 0 20 21" fill="none" xmlns="http://www.w3.org/2000/svg">
<g clip-path="url(#clip0)">
<path d="M13.7336 5.47614C12.9373 5.34874 11.3554 5.47856 10.606 5.65712C10.5593 5.25046 10.4678 4.87122 10.3303 4.51678C12.1466 4.60856 13.7022 3.2899 13.9432 1.51769C13.979 1.255 13.8475 0.997814 13.6137 0.872946C11.833 -0.0780476 9.60967 0.68289 8.79686 2.54652C8.28194 2.15174 7.63969 1.7878 6.80888 1.41522C6.48936 1.27192 6.1142 1.41474 5.97091 1.73426C5.82761 2.05378 5.97043 2.42898 6.28995 2.57228C8.25947 3.45559 9.12669 4.31948 9.32808 5.6572C8.79793 5.54101 8.27821 5.46504 7.7783 5.43176C4.29147 5.21356 1.85986 7.4432 1.36914 10.2989C1.17433 11.388 1.15432 15.1252 3.89793 18.4175C4.8471 19.5446 5.82413 20.4626 7.30118 20.4626C8.21005 20.4625 9.01434 20.1456 10.0018 20.1456C11.7974 20.1456 13.6773 20.9467 15.1694 19.419C17.3727 17.1634 18.6387 14.6173 18.7057 11.4014C18.7506 8.3441 16.5978 5.92624 13.7336 5.47614ZM12.5707 1.81273C12.1734 2.89033 11.0179 3.48134 9.91132 3.17209C10.3086 2.09452 11.4641 1.50347 12.5707 1.81273ZM14.2622 18.533C13.6165 19.1941 12.853 19.1422 11.5591 18.9935C10.1015 18.8261 9.63793 18.8317 8.37058 19.061C7.00528 19.308 6.38332 19.4001 4.86996 17.6032C3.97409 16.5282 3.33287 15.3243 2.96417 14.0251C2.56004 12.6458 2.50678 11.2186 2.61949 10.5102C2.80839 9.41529 3.29253 8.53864 4.10161 7.82862C5.06442 6.97634 6.24078 6.60621 7.69659 6.69728C9.15554 6.79449 9.52638 7.19168 10.759 6.92526C11.4594 6.7457 12.9838 6.59698 13.5409 6.72958C14.6902 7.00305 15.6774 7.46888 16.4229 8.37921C17.1227 9.24623 17.4547 10.2288 17.4378 11.379C17.3788 14.2049 16.2848 16.4624 14.2622 18.533Z" fill="black"/>
</g>
<defs>
<clipPath id="clip0">
<rect width="20" height="20" fill="white" transform="translate(0 0.462646)"/>
</clipPath>
</defs>
</svg>
