<svg width="37" height="37" viewBox="0 0 37 37" fill="none" xmlns="http://www.w3.org/2000/svg">
<path d="M18.8258 0.264893C8.88048 0.264893 0.80127 8.33313 0.80127 18.2649C0.80127 28.1967 8.88048 36.2649 18.8258 36.2649C28.7922 36.2649 36.8503 28.1967 36.8503 18.2649C36.8503 8.33313 28.7922 0.264893 18.8258 0.264893ZM23.7242 15.2155C23.6182 16.1896 23.5333 17.1425 23.4273 18.1167C23.4061 18.2861 23.3213 18.3072 23.194 18.3072C22.367 18.3072 21.5612 18.3072 20.7342 18.3072C20.6282 18.3072 20.5434 18.3072 20.4162 18.3072C20.4162 21.8437 20.4162 25.359 20.4162 28.8955C18.9318 28.8955 17.4898 28.8955 16.0055 28.8955C16.0055 25.359 16.0055 21.8437 16.0055 18.3072C15.5177 18.3072 15.0512 18.3072 14.6059 18.3072C14.3727 18.3072 14.097 18.3708 13.9485 18.2437C13.8425 18.1378 13.9061 17.8414 13.9061 17.6084C13.9061 16.6767 13.9061 15.7661 13.9061 14.8343C13.9061 14.7496 13.9061 14.6649 13.9061 14.5378C14.6059 14.5378 15.3057 14.5378 16.0055 14.5378C16.0055 14.2414 16.0055 13.9872 16.0055 13.7331C16.0267 12.8861 16.0055 12.0178 16.1115 11.1708C16.3447 9.24372 17.7867 7.86725 19.6952 7.74019C20.8191 7.6343 21.9429 7.67666 23.0668 7.67666C23.2789 7.67666 23.4909 7.67666 23.7242 7.67666C23.7242 8.29078 23.7242 8.88372 23.7242 9.47666C23.7242 10.0696 23.7242 10.6837 23.7242 11.319C23.6394 11.319 23.5545 11.319 23.4697 11.319C22.7911 11.319 22.1126 11.319 21.434 11.319C20.8403 11.319 20.4798 11.6155 20.4586 12.1872C20.4162 12.9496 20.4586 13.7331 20.4586 14.5167C21.5612 14.5167 22.6639 14.5167 23.809 14.5167C23.7666 14.7708 23.7454 14.9825 23.7242 15.2155Z" fill="white"/>
</svg>
