<svg width="37" height="37" viewBox="0 0 37 37" fill="none" xmlns="http://www.w3.org/2000/svg">
<path d="M18.2524 0.264893C8.32068 0.264893 0.252441 8.33313 0.252441 18.2649C0.252441 28.1967 8.32068 36.2649 18.2524 36.2649C28.2054 36.2649 36.2524 28.1967 36.2524 18.2649C36.2524 8.33313 28.2054 0.264893 18.2524 0.264893ZM18.2736 7.33783C21.3866 7.33783 23.9277 9.87901 23.9066 12.992C23.9066 16.0837 21.3442 18.6461 18.2524 18.6461C15.1395 18.6461 12.5983 16.0837 12.6195 12.992C12.6195 9.85783 15.1607 7.33783 18.2736 7.33783ZM20.836 23.5167C21.7677 24.4484 22.6995 25.359 23.6313 26.312C24.3936 27.0955 24.3724 28.1967 23.5677 28.8531C22.996 29.319 22.1489 29.3402 21.556 28.8955C21.4289 28.7896 21.3019 28.6837 21.196 28.5567C20.2219 27.5825 19.2689 26.6296 18.2736 25.6343C17.2571 26.6508 16.2619 27.6249 15.2877 28.6202C14.9277 28.9802 14.5254 29.2131 13.996 29.2131C13.3183 29.192 12.8101 28.8743 12.5136 28.2602C12.2383 27.6672 12.2595 27.0531 12.7042 26.5449C13.1913 25.9943 13.7419 25.4649 14.2713 24.9355C14.8219 24.3849 15.3724 23.8343 15.9654 23.2414C15.4995 23.0931 15.0336 22.9661 14.6101 22.7967C13.9748 22.5214 13.3395 22.2249 12.7466 21.8861C11.9419 21.4202 11.7089 20.4461 12.1536 19.6414C12.5983 18.8578 13.5724 18.5614 14.3771 19.0272C15.203 19.472 16.0289 19.8743 16.9607 20.0225C18.6971 20.319 20.3277 20.0437 21.8524 19.1755C22.3395 18.879 22.8477 18.7096 23.4195 18.9002C24.076 19.112 24.4571 19.5778 24.563 20.2343C24.6689 20.8696 24.436 21.4414 23.9066 21.8014C23.0171 22.4155 22.0219 22.839 20.9842 23.1143C20.8571 23.1567 20.7301 23.1778 20.603 23.2202C20.5819 23.2625 20.5607 23.3049 20.5395 23.3261C20.6454 23.3896 20.7513 23.432 20.836 23.5167Z" fill="white"/>
<path d="M18.2951 15.3C19.5657 15.2788 20.5822 14.2412 20.5822 12.9706C20.561 11.6788 19.5022 10.62 18.2316 10.6624C16.9398 10.6835 15.9233 11.7212 15.9233 12.9918C15.9445 14.2835 16.9822 15.3212 18.2951 15.3Z" fill="white"/>
</svg>
