<svg width="140" height="46" viewBox="0 0 140 46" fill="none" xmlns="http://www.w3.org/2000/svg">
<path fill-rule="evenodd" clip-rule="evenodd" d="M19.0557 29.7058C19.8315 29.7058 20.4385 29.5103 20.8095 29.0867C21.1805 28.6631 21.3829 28.0766 21.3829 27.262H26.7454L26.7792 27.3597C26.8129 29.3473 26.1046 30.944 24.6544 32.1821C23.2041 33.4203 21.3154 34.0394 19.0557 34.0394C16.2227 34.0394 14.0304 33.1922 12.479 31.4653C10.9276 29.7709 10.1519 27.5552 10.1519 24.8182V24.4272C10.1519 21.7227 10.9276 19.507 12.4453 17.7801C13.9967 16.0857 16.1552 15.2059 18.9883 15.2059C21.3829 15.2059 23.2716 15.8576 24.6881 17.1284C26.1046 18.3992 26.7792 20.1587 26.7454 22.3744L26.7117 22.4721H21.3492C21.3492 21.625 21.1468 20.9081 20.7758 20.3868C20.3711 19.8328 19.7977 19.5722 18.9883 19.5722C17.8753 19.5722 17.0996 20.0284 16.6611 20.9081C16.2227 21.7879 15.9866 22.9609 15.9866 24.4272V24.8182C15.9866 26.3496 16.2227 27.5226 16.6611 28.3698C17.0996 29.2822 17.8753 29.7058 19.0557 29.7058ZM36.425 25.7305L36.4588 25.8609H36.5599L39.6628 15.5969H45.9023L38.4149 36.4181C37.8416 37.754 37.0996 38.8618 36.189 39.7416C35.2783 40.6214 33.8281 41.045 31.8382 41.045C31.3323 41.045 30.9276 41.0124 30.5903 40.9472C30.253 40.882 29.7471 40.7843 29.0726 40.5888L29.7809 36.5484C29.9495 36.581 30.0507 36.6136 30.1519 36.6136C30.2193 36.6461 30.3542 36.6461 30.4554 36.6461C31.366 36.6461 32.0743 36.5158 32.479 36.2551C32.9175 35.9945 33.221 35.6035 33.4234 35.0821L33.8955 33.9091L27.42 15.5969H33.6594L36.425 25.7305ZM64.1822 33.7136H58.3137V19.9632H53.1535V33.7136H47.3188V15.5969H64.2159V33.7136H64.1822ZM75.9191 34.072C73.1535 34.072 70.9613 33.2248 69.3087 31.5631C67.6561 29.9013 66.8466 27.7833 66.8466 25.2744V24.6553C66.8466 21.8856 67.5886 19.6373 69.1063 17.9104C70.5903 16.1509 72.7488 15.3037 75.5144 15.3037C78.0439 15.3037 80.0675 16.0531 81.4841 17.5194C82.9343 18.9857 83.6426 20.9733 83.6426 23.5148V26.48H72.9174L72.8837 26.5777C73.0186 27.4901 73.3896 28.2721 74.0642 28.8586C74.705 29.4451 75.6156 29.7709 76.6948 29.7709C77.8078 29.7709 78.6847 29.6732 79.3593 29.5103C80.0338 29.3473 80.877 29.0541 81.8888 28.6305L83.2716 32.0844C82.4621 32.6709 81.3829 33.1597 80.1013 33.5507C78.7859 33.8765 77.4031 34.072 75.9191 34.072ZM75.4807 19.6048C74.6375 19.6048 73.9967 19.898 73.592 20.4845C73.1873 21.071 72.9174 21.8205 72.8163 22.798L72.8837 22.8957H77.9427V22.4721C77.9427 21.5598 77.7404 20.8755 77.3694 20.3868C76.9309 19.8654 76.3239 19.6048 75.4807 19.6048ZM103.508 25.0463C103.508 27.7833 102.867 29.9664 101.585 31.5956C100.304 33.2574 98.5161 34.072 96.189 34.072C95.2783 34.072 94.5026 33.9091 93.7943 33.5833C93.0861 33.2574 92.479 32.7687 91.9731 32.117V40.6865H86.1046V15.5969H91.6021L91.8045 17.5846C92.3441 16.8351 92.9512 16.2486 93.6932 15.8576C94.4014 15.4666 95.2446 15.2711 96.189 15.2711C98.5161 15.2711 100.304 16.1509 101.585 17.8778C102.867 19.6048 103.508 21.8856 103.508 24.7204V25.0463ZM97.6729 24.6878C97.6729 23.1564 97.4368 21.9508 96.9647 21.0059C96.4925 20.0935 95.7505 19.6048 94.7387 19.6048C94.0979 19.6048 93.5245 19.7351 93.0861 19.9632C92.6139 20.1913 92.2766 20.5497 92.0068 20.9733V28.5327C92.2766 28.9238 92.6476 29.217 93.1198 29.4125C93.592 29.608 94.1316 29.7058 94.8062 29.7058C95.8517 29.7058 96.56 29.2822 97.0321 28.4676C97.4706 27.653 97.7067 26.5125 97.7067 25.0463V24.6878H97.6729Z" fill="white"/>
<path d="M129.747 27.262C129.511 26.7732 129.14 26.4148 128.701 26.1541C129.173 25.8283 129.511 25.3721 129.713 24.8508C129.949 24.1991 129.915 23.4822 129.578 22.8306C129.275 22.2441 128.802 21.8205 128.263 21.5924C128.431 21.3643 128.6 21.1036 128.701 20.8429C128.937 20.1913 128.904 19.4744 128.566 18.8228C128.229 18.1711 127.656 17.6823 126.981 17.4868C126.442 17.3239 125.835 17.2913 125.295 17.4542C125.362 16.9655 125.295 16.4441 125.025 15.9879C124.688 15.3363 124.114 14.8475 123.44 14.652C122.765 14.4239 121.99 14.4565 121.349 14.7823L119.528 15.6295L117.706 16.4767C117.673 16.4767 117.639 16.5093 117.605 16.5093C117.47 16.5419 117.335 16.5745 117.2 16.5745C117.032 16.5745 116.897 16.5419 116.728 16.4767C116.054 16.1835 116.121 15.1408 116.189 14.1958C116.222 13.0228 116.087 11.752 115.683 10.3835C115.379 9.406 114.637 8.65657 113.625 8.33073C112.647 8.0049 111.568 8.2004 110.759 8.78691C110.152 9.2105 109.848 9.92735 109.983 10.6442C110.185 11.9801 109.983 16.1835 108.836 18.9857C108.33 20.2239 107.622 22.1137 107.42 22.9283C107.15 24.0036 107.082 25.1114 107.217 26.2193C107.352 27.2946 107.656 28.3698 108.195 29.4125C109.41 31.8237 111.501 33.5181 113.895 34.3653C116.324 35.2124 119.055 35.1799 121.551 34.072L125.531 32.2147C125.565 32.2147 125.598 32.1821 125.632 32.1821L126.577 31.726L126.61 31.6934L128.094 31.0091L128.398 30.8462C129.072 30.5204 129.544 29.9664 129.781 29.3148C130.118 28.6631 130.084 27.9462 129.747 27.262ZM128.398 23.3845C128.566 23.7429 128.6 24.1339 128.465 24.4598C128.33 24.7856 128.094 25.1114 127.723 25.2744L126.071 26.0564L123.238 27.3923C122.867 27.5552 122.496 27.5878 122.125 27.4575H122.091C121.754 27.3271 121.45 27.0991 121.281 26.7406C121.113 26.3822 121.079 25.9912 121.214 25.6654C121.349 25.3395 121.585 25.0137 121.956 24.8508L126.442 22.7328C126.813 22.5699 127.184 22.5699 127.555 22.6676C127.926 22.798 128.229 23.0587 128.398 23.3845ZM125.43 18.6924C125.801 18.5295 126.172 18.4969 126.543 18.6272C126.88 18.7576 127.217 18.9857 127.386 19.3441C127.555 19.7025 127.588 20.0935 127.453 20.4194C127.319 20.7452 127.082 21.071 126.711 21.234C124.958 22.0811 123.17 22.8957 121.416 23.7429C121.045 23.9058 120.641 23.9384 120.303 23.8081C119.966 23.6777 119.629 23.4497 119.46 23.0912C119.292 22.7328 119.258 22.3744 119.393 22.016C119.528 21.6901 119.764 21.3643 120.135 21.2014C121.889 20.3542 123.676 19.5396 125.43 18.6924ZM117.538 18.3666C117.673 18.0407 117.909 17.7149 118.28 17.552L120.101 16.7048L121.922 15.8576C122.293 15.6947 122.664 15.6621 123.035 15.7924C123.811 16.0531 124.182 16.8351 123.946 17.5846V17.6171C123.811 17.943 123.575 18.2362 123.204 18.3992C121.99 18.9531 120.809 19.5396 119.595 20.0935C119.224 20.2564 118.819 20.289 118.482 20.1587C118.145 20.0284 117.808 19.8003 117.639 19.4418C117.437 19.0834 117.437 18.6924 117.538 18.3666ZM121.079 32.899C118.887 33.8765 116.492 33.9091 114.401 33.1597C112.31 32.4428 110.489 30.944 109.41 28.826C108.971 27.9137 108.668 27.0013 108.566 26.0564C108.465 25.0789 108.499 24.1013 108.735 23.1564C108.904 22.407 109.376 20.9407 110.084 19.3441C111.467 16.216 111.568 11.7195 111.332 10.188C111.298 9.92735 111.399 9.69926 111.602 9.53634C112.108 9.17792 112.715 9.08016 113.288 9.27567C113.895 9.47117 114.334 9.92735 114.502 10.5139C114.873 11.7846 114.941 12.9576 114.907 14.0655C114.806 15.4014 114.738 16.9003 116.189 17.552C116.256 17.5846 116.357 17.6171 116.425 17.6497C116.391 17.7475 116.324 17.8452 116.29 17.943C116.054 18.5947 116.088 19.3115 116.425 19.9632C116.762 20.6149 117.335 21.1036 118.01 21.2991C118.077 21.3317 118.145 21.3317 118.246 21.3643C118.212 21.4295 118.179 21.4946 118.145 21.5924C117.909 22.2441 117.942 22.9609 118.28 23.6126C118.617 24.2643 119.19 24.753 119.865 24.9485C119.932 24.9811 120 24.9811 120.101 25.0137C120.067 25.0789 120.034 25.144 120 25.2418C119.764 25.8935 119.797 26.6103 120.135 27.262C120.472 27.9137 121.012 28.3698 121.686 28.5979H121.72C121.787 28.6305 121.855 28.6305 121.956 28.6631C121.922 28.7283 121.889 28.7934 121.855 28.8912C121.619 29.5103 121.652 30.2271 121.956 30.8788C121.956 30.9114 121.99 30.944 121.99 30.9765C122.226 31.4327 122.563 31.7586 122.968 32.0192L121.079 32.899ZM128.634 28.8912C128.533 29.217 128.263 29.5103 127.926 29.6732C127.892 29.6732 127.892 29.7058 127.858 29.7058L127.588 29.8361L125.093 31.0091C124.722 31.172 124.317 31.2046 123.98 31.0743C123.642 30.9765 123.339 30.7159 123.17 30.39C123.17 30.3574 123.136 30.3574 123.136 30.3249C122.968 29.999 122.968 29.608 123.103 29.2822C123.204 28.9563 123.474 28.6631 123.811 28.5002C123.845 28.5002 123.845 28.4676 123.878 28.4676L126.34 27.2946L126.644 27.1316C127.015 26.9687 127.42 26.9361 127.757 27.0665C128.094 27.1642 128.398 27.4249 128.566 27.7507C128.566 27.7833 128.6 27.7833 128.6 27.8159C128.769 28.2069 128.769 28.5653 128.634 28.8912Z" fill="white"/>
</svg>
