<svg width="121" height="34" viewBox="0 0 121 34" fill="none" xmlns="http://www.w3.org/2000/svg">
<path fill-rule="evenodd" clip-rule="evenodd" d="M9.05573 21.7058C9.83145 21.7058 10.4385 21.5103 10.8095 21.0867C11.1805 20.6631 11.3829 20.0766 11.3829 19.262H16.7454L16.7792 19.3597C16.8129 21.3473 16.1046 22.944 14.6544 24.1821C13.2041 25.4203 11.3154 26.0394 9.05573 26.0394C6.22268 26.0394 4.03044 25.1922 2.47901 23.4653C0.927572 21.7709 0.151855 19.5552 0.151855 16.8182V16.4272C0.151855 13.7227 0.927572 11.507 2.44528 9.78006C3.99671 8.0857 6.15523 7.20593 8.98828 7.20593C11.3829 7.20593 13.2716 7.85761 14.6881 9.12838C16.1046 10.3992 16.7792 12.1587 16.7454 14.3744L16.7117 14.4721H11.3492C11.3492 13.625 11.1468 12.9081 10.7758 12.3868C10.3711 11.8328 9.79772 11.5722 8.98828 11.5722C7.87529 11.5722 7.09958 12.0284 6.66113 12.9081C6.22268 13.7879 5.98659 14.9609 5.98659 16.4272V16.8182C5.98659 18.3496 6.22268 19.5226 6.66113 20.3698C7.09958 21.2822 7.8753 21.7058 9.05573 21.7058ZM26.425 17.7305L26.4588 17.8609H26.5599L29.6628 7.59694H35.9023L28.4149 28.4181C27.8416 29.754 27.0996 30.8618 26.189 31.7416C25.2783 32.6214 23.8281 33.045 21.8382 33.045C21.3323 33.045 20.9276 33.0124 20.5903 32.9472C20.253 32.882 19.7471 32.7843 19.0726 32.5888L19.7809 28.5484C19.9495 28.581 20.0507 28.6136 20.1519 28.6136C20.2193 28.6461 20.3542 28.6461 20.4554 28.6461C21.366 28.6461 22.0743 28.5158 22.479 28.2551C22.9175 27.9945 23.221 27.6035 23.4234 27.0821L23.8955 25.9091L17.42 7.59694H23.6594L26.425 17.7305ZM54.1822 25.7136H48.3137V11.9632H43.1535V25.7136H37.3188V7.59694H54.2159V25.7136H54.1822ZM65.9191 26.072C63.1535 26.072 60.9613 25.2248 59.3087 23.5631C57.6561 21.9013 56.8466 19.7833 56.8466 17.2744V16.6553C56.8466 13.8856 57.5886 11.6373 59.1063 9.9104C60.5903 8.15087 62.7488 7.30368 65.5144 7.30368C68.0439 7.30368 70.0675 8.05311 71.4841 9.51939C72.9343 10.9857 73.6426 12.9733 73.6426 15.5148V18.48H62.9174L62.8837 18.5777C63.0186 19.4901 63.3896 20.2721 64.0642 20.8586C64.705 21.4451 65.6156 21.7709 66.6948 21.7709C67.8078 21.7709 68.6847 21.6732 69.3593 21.5103C70.0338 21.3473 70.877 21.0541 71.8888 20.6305L73.2716 24.0844C72.4621 24.6709 71.3829 25.1597 70.1013 25.5507C68.7859 25.8765 67.4031 26.072 65.9191 26.072ZM65.4807 11.6048C64.6375 11.6048 63.9967 11.898 63.592 12.4845C63.1873 13.071 62.9174 13.8205 62.8163 14.798L62.8837 14.8957H67.9427V14.4721C67.9427 13.5598 67.7404 12.8755 67.3694 12.3868C66.9309 11.8654 66.3239 11.6048 65.4807 11.6048ZM93.5077 17.0463C93.5077 19.7833 92.8669 21.9664 91.5852 23.5956C90.3036 25.2574 88.5161 26.072 86.189 26.072C85.2783 26.072 84.5026 25.9091 83.7943 25.5833C83.0861 25.2574 82.479 24.7687 81.9731 24.117V32.6865H76.1046V7.59694H81.6021L81.8045 9.58456C82.3441 8.83513 82.9512 8.24862 83.6932 7.85761C84.4014 7.4666 85.2446 7.2711 86.189 7.2711C88.5161 7.2711 90.3036 8.15087 91.5852 9.87781C92.8669 11.6048 93.5077 13.8856 93.5077 16.7204V17.0463ZM87.6729 16.6878C87.6729 15.1564 87.4368 13.9508 86.9647 13.0059C86.4925 12.0935 85.7505 11.6048 84.7387 11.6048C84.0979 11.6048 83.5245 11.7351 83.0861 11.9632C82.6139 12.1913 82.2766 12.5497 82.0068 12.9733V20.5327C82.2766 20.9238 82.6476 21.217 83.1198 21.4125C83.592 21.608 84.1316 21.7058 84.8062 21.7058C85.8517 21.7058 86.56 21.2822 87.0321 20.4676C87.4706 19.653 87.7067 18.5125 87.7067 17.0463V16.6878H87.6729Z" fill="white"/>
<path d="M119.747 19.262C119.511 18.7732 119.14 18.4148 118.701 18.1541C119.173 17.8283 119.511 17.3721 119.713 16.8508C119.949 16.1991 119.915 15.4822 119.578 14.8306C119.275 14.2441 118.802 13.8205 118.263 13.5924C118.431 13.3643 118.6 13.1036 118.701 12.8429C118.937 12.1913 118.904 11.4744 118.566 10.8228C118.229 10.1711 117.656 9.68231 116.981 9.48681C116.442 9.32389 115.835 9.29131 115.295 9.45423C115.362 8.96547 115.295 8.44412 115.025 7.98795C114.688 7.33627 114.114 6.84751 113.44 6.65201C112.765 6.42392 111.99 6.45651 111.349 6.78235L109.528 7.62953L107.706 8.47671C107.673 8.47671 107.639 8.50929 107.605 8.50929C107.47 8.54188 107.335 8.57446 107.2 8.57446C107.032 8.57446 106.897 8.54188 106.728 8.47671C106.054 8.18345 106.121 7.14077 106.189 6.19584C106.222 5.02282 106.087 3.75204 105.683 2.38352C105.379 1.406 104.637 0.656574 103.625 0.330735C102.647 0.00489581 101.568 0.200399 100.759 0.786909C100.152 1.2105 99.848 1.92735 99.983 2.64419C100.185 3.98013 99.983 8.18345 98.8362 10.9857C98.3303 12.2239 97.6221 14.1137 97.4197 14.9283C97.1499 16.0036 97.0824 17.1114 97.2174 18.2193C97.3523 19.2946 97.6558 20.3698 98.1954 21.4125C99.4096 23.8237 101.501 25.5181 103.895 26.3653C106.324 27.2124 109.055 27.1799 111.551 26.072L115.531 24.2147C115.565 24.2147 115.598 24.1821 115.632 24.1821L116.577 23.726L116.61 23.6934L118.094 23.0091L118.398 22.8462C119.072 22.5204 119.544 21.9664 119.781 21.3148C120.118 20.6631 120.084 19.9462 119.747 19.262ZM118.398 15.3845C118.566 15.7429 118.6 16.1339 118.465 16.4598C118.33 16.7856 118.094 17.1114 117.723 17.2744L116.071 18.0564L113.238 19.3923C112.867 19.5552 112.496 19.5878 112.125 19.4575H112.091C111.754 19.3271 111.45 19.0991 111.281 18.7406C111.113 18.3822 111.079 17.9912 111.214 17.6654C111.349 17.3395 111.585 17.0137 111.956 16.8508L116.442 14.7328C116.813 14.5699 117.184 14.5699 117.555 14.6676C117.926 14.798 118.229 15.0587 118.398 15.3845ZM115.43 10.6924C115.801 10.5295 116.172 10.4969 116.543 10.6272C116.88 10.7576 117.217 10.9857 117.386 11.3441C117.555 11.7025 117.588 12.0935 117.453 12.4194C117.319 12.7452 117.082 13.071 116.711 13.234C114.958 14.0811 113.17 14.8957 111.416 15.7429C111.045 15.9058 110.641 15.9384 110.303 15.8081C109.966 15.6777 109.629 15.4497 109.46 15.0912C109.292 14.7328 109.258 14.3744 109.393 14.016C109.528 13.6901 109.764 13.3643 110.135 13.2014C111.889 12.3542 113.676 11.5396 115.43 10.6924ZM107.538 10.3666C107.673 10.0407 107.909 9.7149 108.28 9.55198L110.101 8.7048L111.922 7.85761C112.293 7.69469 112.664 7.66211 113.035 7.79245C113.811 8.05312 114.182 8.83513 113.946 9.58456V9.61714C113.811 9.94298 113.575 10.2362 113.204 10.3992C111.99 10.9531 110.809 11.5396 109.595 12.0935C109.224 12.2564 108.819 12.289 108.482 12.1587C108.145 12.0284 107.808 11.8003 107.639 11.4418C107.437 11.0834 107.437 10.6924 107.538 10.3666ZM111.079 24.899C108.887 25.8765 106.492 25.9091 104.401 25.1597C102.31 24.4428 100.489 22.944 99.4096 20.826C98.9711 19.9137 98.6676 19.0013 98.5664 18.0564C98.4652 17.0789 98.499 16.1013 98.7351 15.1564C98.9037 14.407 99.3759 12.9407 100.084 11.3441C101.467 8.21604 101.568 3.71946 101.332 2.18802C101.298 1.92735 101.399 1.69926 101.602 1.53634C102.108 1.17792 102.715 1.08016 103.288 1.27567C103.895 1.47117 104.334 1.92735 104.502 2.51386C104.873 3.78463 104.941 4.95765 104.907 6.0655C104.806 7.40144 104.738 8.9003 106.189 9.55198C106.256 9.58456 106.357 9.61714 106.425 9.64973C106.391 9.74748 106.324 9.84523 106.29 9.94298C106.054 10.5947 106.088 11.3115 106.425 11.9632C106.762 12.6149 107.335 13.1036 108.01 13.2991C108.077 13.3317 108.145 13.3317 108.246 13.3643C108.212 13.4295 108.179 13.4946 108.145 13.5924C107.909 14.2441 107.942 14.9609 108.28 15.6126C108.617 16.2643 109.19 16.753 109.865 16.9485C109.932 16.9811 110 16.9811 110.101 17.0137C110.067 17.0789 110.034 17.144 110 17.2418C109.764 17.8935 109.797 18.6103 110.135 19.262C110.472 19.9137 111.012 20.3698 111.686 20.5979H111.72C111.787 20.6305 111.855 20.6305 111.956 20.6631C111.922 20.7283 111.889 20.7934 111.855 20.8912C111.619 21.5103 111.652 22.2271 111.956 22.8788C111.956 22.9114 111.99 22.944 111.99 22.9765C112.226 23.4327 112.563 23.7586 112.968 24.0192L111.079 24.899ZM118.634 20.8912C118.533 21.217 118.263 21.5103 117.926 21.6732C117.892 21.6732 117.892 21.7058 117.858 21.7058L117.588 21.8361L115.093 23.0091C114.722 23.172 114.317 23.2046 113.98 23.0743C113.642 22.9765 113.339 22.7159 113.17 22.39C113.17 22.3574 113.136 22.3574 113.136 22.3249C112.968 21.999 112.968 21.608 113.103 21.2822C113.204 20.9563 113.474 20.6631 113.811 20.5002C113.845 20.5002 113.845 20.4676 113.878 20.4676L116.34 19.2946L116.644 19.1316C117.015 18.9687 117.42 18.9361 117.757 19.0665C118.094 19.1642 118.398 19.4249 118.566 19.7507C118.566 19.7833 118.6 19.7833 118.6 19.8159C118.769 20.2069 118.769 20.5653 118.634 20.8912Z" fill="white"/>
</svg>
