<svg viewBox="0 0 48 15" fill="none" xmlns="http://www.w3.org/2000/svg">
<path d="M46.8429 3.51384C46.6721 3.38443 42.3336 0.181484 36.7653 0.699131C32.1193 1.15207 30.0696 3.6109 29.4206 4.58148C24.1255 3.83737 20.197 3.02854 16.6442 2.28442C15.8243 2.12266 15.0044 1.92854 14.2187 1.79913C9.57273 0.860896 3.90192 0.505014 2.29633 1.08737C0.724905 1.63737 0.178322 2.83442 0.14416 2.89913C0.0075141 3.22266 0.14416 3.6109 0.485775 3.74031C0.82739 3.86972 1.23733 3.74031 1.37397 3.41678C1.37397 3.41678 1.71559 2.67266 2.74043 2.31678C3.79944 1.92854 8.95783 2.09031 13.8771 3.09325C14.287 3.19031 14.7311 3.25501 15.1411 3.35207C14.5261 4.45207 13.6721 6.49031 14.2529 8.88442C15.1069 12.3462 19.7187 14.3521 19.9237 14.4491C20.0261 14.4815 20.1286 14.5138 20.197 14.5138C20.4361 14.5138 20.6752 14.3844 20.8119 14.158C20.8802 14.0285 22.7249 10.7285 21.5293 7.10501C21.1193 5.90795 20.4702 4.96972 19.7529 4.25795C22.5199 4.80795 25.6286 5.39031 29.4206 5.90795C30.1721 6.74913 32.8025 9.20795 37.0044 9.20795C37.2094 9.20795 37.3802 9.20795 37.5852 9.20795C42.8119 8.91678 46.7063 4.64619 46.8771 4.45207C47.0137 4.32266 47.0479 4.12854 47.0479 3.96678C47.0821 3.77266 46.9796 3.6109 46.8429 3.51384ZM36.9361 1.99325C40.523 1.63737 43.6317 3.09325 45.1007 3.93442C43.8025 4.51678 39.9081 5.8756 33.2125 5.06678C32.4268 4.96972 31.6752 4.87266 30.9578 4.7756C31.7435 3.86972 33.5199 2.31678 36.9361 1.99325ZM19.9578 12.9285C18.7622 12.3138 16.2342 10.7285 15.6876 8.52854C15.2094 6.55501 15.9268 4.80795 16.4392 3.90207C16.815 4.51678 17.2932 5.3256 17.669 6.19913C18.1131 7.33148 18.5572 9.69325 18.5914 9.7256C18.6255 9.88737 18.7622 9.98442 18.933 9.98442C18.9671 9.98442 18.9671 9.98442 19.0013 9.98442C19.1721 9.95207 19.3088 9.79031 19.2746 9.59619C19.2404 9.49913 18.8305 7.13737 18.3181 5.94031C18.0448 5.22854 17.669 4.54913 17.3274 3.99913C18.3522 4.54913 19.7529 5.61678 20.3336 7.42854C21.051 9.7256 20.3678 11.9256 19.9578 12.9285ZM37.5852 7.88148C35.023 8.04325 33.0758 7.07266 31.846 6.19913C32.2218 6.26384 32.6317 6.29619 33.0417 6.3609C34.5789 6.55501 35.9796 6.61972 37.2094 6.61972C39.6007 6.61972 41.5137 6.32854 42.9485 6.00501C41.5137 6.9109 39.6348 7.78442 37.5852 7.88148Z" fill="black"/>
</svg>
