<svg width="37" height="37" viewBox="0 0 37 37" fill="none" xmlns="http://www.w3.org/2000/svg">
<path d="M18.5513 0.264893C8.6195 0.264893 0.55127 8.33313 0.55127 18.2649C0.55127 28.1967 8.6195 36.2649 18.5513 36.2649C28.5042 36.2649 36.5513 28.1967 36.5513 18.2649C36.5513 8.33313 28.5042 0.264893 18.5513 0.264893ZM28.8642 13.5637C28.7795 14.0296 28.5677 14.4743 28.2924 14.8555C27.6995 15.7237 27.0854 16.5708 26.4713 17.4178C26.196 17.799 25.9207 18.159 25.6666 18.5614C25.4124 18.9637 25.4548 19.3449 25.7936 19.6837C26.2807 20.192 26.7889 20.6578 27.276 21.1661C27.763 21.6531 28.2501 22.1825 28.5889 22.7967C28.6948 22.9872 28.7795 23.199 28.8219 23.4108C28.8854 23.7496 28.7583 23.9614 28.4195 24.0672C28.2289 24.1308 28.0172 24.1308 27.8266 24.152C27.0007 24.1731 26.196 24.152 25.3701 24.1943C24.5442 24.2578 23.9089 23.9402 23.3583 23.3896C22.9136 22.9449 22.5324 22.479 22.0877 22.0343C21.9395 21.8649 21.7489 21.7167 21.5583 21.5896C21.2619 21.3778 21.0289 21.4202 20.7748 21.6743C20.5207 21.9284 20.4148 22.2461 20.3724 22.5849C20.3301 22.8814 20.3089 23.199 20.2877 23.5167C20.2454 23.8767 20.076 24.0884 19.716 24.152C19.6736 24.152 19.6313 24.1731 19.5889 24.1731C19.0172 24.1731 18.4666 24.1943 17.8948 24.1731C17.0266 24.1308 16.2007 23.8767 15.4383 23.4531C14.5066 22.9237 13.6172 22.3308 12.9395 21.5049C12.3254 20.7425 11.7536 19.9802 11.203 19.1755C10.123 17.5661 9.23362 15.8296 8.45009 14.0508C8.38656 13.9025 8.32303 13.7755 8.28068 13.6272C8.19598 13.3308 8.32303 13.119 8.6195 13.0555C8.74656 13.0343 8.8948 13.0131 9.02186 13.0131C9.91127 13.0131 10.8219 12.992 11.7113 12.992C12.1772 12.992 12.4736 13.1825 12.643 13.6061C13.1089 14.7496 13.7019 15.8296 14.2948 16.9096C14.5277 17.3331 14.8242 17.7355 15.2054 18.0531C15.3748 18.1802 15.5442 18.2649 15.756 18.2437C15.883 18.2225 15.9466 18.1802 16.0101 18.0531C16.1583 17.7778 16.2219 17.5025 16.2642 17.2061C16.3701 16.4225 16.3913 15.6602 16.3066 14.8767C16.2854 14.6437 16.2219 14.3896 16.1795 14.1567C16.0736 13.6908 15.756 13.4578 15.3113 13.352C15.2266 13.3308 15.1419 13.2884 15.0572 13.2461C15.0995 13.1614 15.1419 13.0767 15.2266 12.992C15.4595 12.759 15.7348 12.632 16.0524 12.5896C17.1113 12.4202 18.1489 12.4414 19.2077 12.5472C19.3348 12.5684 19.4619 12.5896 19.5889 12.6108C20.0972 12.7378 20.203 12.9284 20.2877 13.4367C20.3301 13.7967 20.3089 14.1567 20.3089 14.5378C20.3089 14.8343 20.3089 15.1308 20.3089 15.4272C20.3089 15.4272 20.3089 15.4272 20.2877 15.4272C20.2877 16.1049 20.2666 16.7825 20.2877 17.4814C20.2877 17.6508 20.3724 17.8414 20.4572 17.9896C20.6266 18.2649 20.8807 18.2861 21.1348 18.0743C21.516 17.7567 21.8124 17.3755 22.0877 16.9731C22.8077 15.9355 23.4007 14.8131 23.8666 13.6484C23.8877 13.6272 23.8877 13.5849 23.9089 13.5637C24.0572 13.2037 24.2054 13.0555 24.6713 13.0555C25.7724 13.0555 26.8736 13.0343 27.9748 13.0343C28.1442 13.0343 28.3136 13.0555 28.4619 13.119C28.8219 13.0767 28.9066 13.2672 28.8642 13.5637Z" fill="white"/>
</svg>
